<svg xmlns="http://www.w3.org/2000/svg" viewBox="103.5 103.5 168 168">
  <rect x="103.5" y="103.5" width="168" height="168" fill="#F4EDE0"/>
  <path fill="#E8832A" d="M 203.761719 216.152344 C 196.902344 219.207031 189.734375 219.207031 182.457031 219.304688 C 180.441406 219.304688 178.4375 219.207031 176.222656 219.207031 L 176.546875 191.882812 C 185.933594 191.882812 195.214844 191.148438 203.976562 195.058594 C 208.507812 197.046875 211.148438 200.535156 211.148438 205.699219 C 211.050781 210.867188 208.304688 214.136719 203.761719 216.152344 Z M 176.855469 154.546875 C 184.566406 154.546875 192.058594 153.914062 199.011719 157.078125 C 203.652344 159.089844 205.980469 162.878906 205.667969 167.417969 C 205.34375 172.273438 202.609375 175.75 197.648438 177.332031 C 190.898438 179.546875 183.824219 179.441406 176.546875 179.128906 C 176.652344 171.109375 176.75 163.09375 176.855469 154.546875 Z M 235.414062 199.695312 C 234.574219 193.679688 231.613281 189.039062 226.351562 185.984375 C 223.917969 184.605469 221.277344 183.660156 218.53125 182.496094 C 218.855469 182.292969 219.058594 182.078125 219.277344 181.96875 C 232.464844 175.222656 231.300781 154.871094 221.699219 147.90625 C 217.789062 145.054688 213.472656 143.269531 208.941406 142.214844 C 205.667969 141.472656 202.394531 140.945312 199.011719 140.417969 C 199.011719 134.507812 199.121094 126.394531 199.121094 119.851562 L 186.773438 119.851562 C 186.675781 126.285156 186.675781 134.195312 186.566406 139.996094 L 176.652344 139.996094 C 176.652344 134.195312 176.75 126.285156 176.75 119.851562 L 164.519531 119.851562 C 164.410156 126.394531 164.410156 134.507812 164.304688 140.308594 C 155.863281 140.203125 147.734375 140.203125 139.292969 140.105469 C 139.292969 144.636719 139.199219 148.855469 139.199219 153.289062 C 140.984375 153.289062 142.566406 153.289062 144.042969 153.386719 C 145.625 153.386719 147.207031 153.386719 148.691406 153.492188 C 153.007812 153.816406 155.226562 156.238281 155.226562 160.457031 C 155.023438 178.074219 154.808594 195.789062 154.699219 213.394531 C 154.699219 217.300781 153.007812 218.777344 149.21875 218.777344 L 140.984375 218.777344 C 140.144531 223.738281 139.292969 228.484375 138.453125 233.433594 C 146.785156 233.542969 155.023438 233.648438 163.464844 233.757812 C 163.464844 240.085938 163.355469 248.101562 163.355469 254.742188 L 175.695312 254.742188 C 175.800781 248.101562 175.800781 240.300781 175.910156 234.082031 C 179.386719 234.175781 182.550781 234.285156 185.824219 234.390625 C 185.824219 240.71875 185.71875 248.414062 185.71875 254.851562 L 198.066406 254.851562 C 198.175781 248.199219 198.175781 240.410156 198.269531 234.285156 C 198.703125 234.175781 199.011719 234.175781 199.335938 234.082031 C 205.25 233.121094 211.253906 232.59375 216.949219 231.226562 C 224.445312 229.324219 230.355469 224.996094 233.519531 217.613281 C 235.738281 211.933594 236.253906 205.914062 235.414062 199.695312"/>
</svg>
