<svg xmlns="http://www.w3.org/2000/svg" xmlns:xlink="http://www.w3.org/1999/xlink" width="500" zoomAndPan="magnify" viewBox="0 0 375 374.999991" height="500" preserveAspectRatio="xMidYMid meet" version="1.0"><defs><g/><clipPath id="2f45f2c8a3"><path d="M 63.082031 63.082031 L 312 63.082031 L 312 312 L 63.082031 312 Z M 63.082031 63.082031 " clip-rule="nonzero"/></clipPath><clipPath id="4c46db2027"><path d="M 102.25 102.378906 L 272.5 102.378906 L 272.5 149.628906 L 102.25 149.628906 Z M 102.25 102.378906 " clip-rule="nonzero"/></clipPath><clipPath id="64378ac6d3"><path d="M 102.25 218.679688 L 272.5 218.679688 L 272.5 272.5 L 102.25 272.5 Z M 102.25 218.679688 " clip-rule="nonzero"/></clipPath><clipPath id="9dab9d9efd"><path d="M 138.285156 119.851562 L 236 119.851562 L 236 254.851562 L 138.285156 254.851562 Z M 138.285156 119.851562 " clip-rule="nonzero"/></clipPath></defs><g clip-path="url(#2f45f2c8a3)"><path fill="#f79130" d="M 187.496094 311.90625 C 118.914062 311.90625 63.082031 256.074219 63.082031 187.496094 C 63.082031 118.914062 118.914062 63.082031 187.496094 63.082031 C 256.074219 63.082031 311.90625 118.914062 311.90625 187.496094 C 311.90625 256.074219 256.074219 311.90625 187.496094 311.90625 Z M 187.496094 64.921875 C 119.898438 64.921875 64.921875 119.898438 64.921875 187.496094 C 64.921875 255.09375 119.898438 310.070312 187.496094 310.070312 C 255.09375 310.070312 310.070312 255.09375 310.070312 187.496094 C 310.070312 119.898438 255.09375 64.921875 187.496094 64.921875 Z M 187.496094 64.921875 " fill-opacity="1" fill-rule="nonzero"/></g><g clip-path="url(#4c46db2027)"><path fill="#f79130" d="M 187.496094 272.875 C 140.507812 272.875 102.25 234.617188 102.25 187.625 C 102.25 140.632812 140.507812 102.378906 187.496094 102.378906 C 234.488281 102.378906 272.746094 140.632812 272.746094 187.625 C 272.746094 234.617188 234.488281 272.875 187.496094 272.875 Z M 187.496094 103.636719 C 141.179688 103.636719 103.507812 141.304688 103.507812 187.625 C 103.507812 233.945312 141.179688 271.613281 187.496094 271.613281 C 233.816406 271.613281 271.484375 233.945312 271.484375 187.625 C 271.484375 141.304688 233.816406 103.636719 187.496094 103.636719 Z M 187.496094 103.636719 " fill-opacity="1" fill-rule="nonzero"/></g><g clip-path="url(#64378ac6d3)"><path fill="#f79130" d="M 187.496094 272.746094 C 140.507812 272.746094 102.25 234.488281 102.25 187.496094 C 102.25 140.507812 140.507812 102.25 187.496094 102.25 C 234.488281 102.25 272.746094 140.507812 272.746094 187.496094 C 272.746094 234.488281 234.488281 272.746094 187.496094 272.746094 Z M 187.496094 103.507812 C 141.179688 103.507812 103.507812 141.179688 103.507812 187.496094 C 103.507812 233.816406 141.179688 271.484375 187.496094 271.484375 C 233.816406 271.484375 271.484375 233.816406 271.484375 187.496094 C 271.484375 141.179688 233.816406 103.507812 187.496094 103.507812 Z M 187.496094 103.507812 " fill-opacity="1" fill-rule="nonzero"/></g><g fill="#f79130" fill-opacity="1"><g transform="translate(138.366036, 102.563769)"><g><path d="M 3.640625 -3.609375 C 3.953125 -3.773438 4.191406 -3.953125 4.359375 -4.140625 C 4.523438 -4.328125 4.632812 -4.515625 4.6875 -4.703125 C 4.75 -4.890625 4.765625 -5.082031 4.734375 -5.28125 C 4.703125 -5.476562 4.640625 -5.664062 4.546875 -5.84375 C 4.441406 -6.039062 4.316406 -6.203125 4.171875 -6.328125 C 4.023438 -6.453125 3.859375 -6.53125 3.671875 -6.5625 C 3.484375 -6.59375 3.269531 -6.582031 3.03125 -6.53125 C 2.789062 -6.476562 2.523438 -6.375 2.234375 -6.21875 L 0.5625 -5.328125 L 1.96875 -2.71875 Z M -1.4375 -9.0625 L -0.046875 -6.484375 L 1.28125 -7.1875 C 1.84375 -7.488281 2.210938 -7.816406 2.390625 -8.171875 C 2.578125 -8.535156 2.550781 -8.945312 2.3125 -9.40625 C 2.0625 -9.875 1.75 -10.132812 1.375 -10.1875 C 1 -10.238281 0.53125 -10.113281 -0.03125 -9.8125 Z M -0.703125 -11.109375 C -0.109375 -11.421875 0.421875 -11.628906 0.890625 -11.734375 C 1.359375 -11.847656 1.78125 -11.875 2.15625 -11.8125 C 2.53125 -11.75 2.859375 -11.601562 3.140625 -11.375 C 3.421875 -11.144531 3.660156 -10.847656 3.859375 -10.484375 C 3.972656 -10.273438 4.050781 -10.054688 4.09375 -9.828125 C 4.132812 -9.609375 4.128906 -9.378906 4.078125 -9.140625 C 4.035156 -8.910156 3.953125 -8.671875 3.828125 -8.421875 C 3.703125 -8.179688 3.53125 -7.9375 3.3125 -7.6875 C 4.675781 -8.070312 5.640625 -7.738281 6.203125 -6.6875 C 6.410156 -6.300781 6.53125 -5.910156 6.5625 -5.515625 C 6.59375 -5.128906 6.53125 -4.742188 6.375 -4.359375 C 6.21875 -3.984375 5.972656 -3.617188 5.640625 -3.265625 C 5.304688 -2.921875 4.882812 -2.609375 4.375 -2.328125 L 1 -0.53125 L -3.765625 -9.46875 Z M -0.703125 -11.109375 "/></g></g></g><g fill="#f79130" fill-opacity="1"><g transform="translate(154.792912, 94.87991)"><g><path d="M 2.859375 -0.953125 L 1.0625 -0.359375 L -2.140625 -9.96875 L -0.34375 -10.5625 Z M 2.859375 -0.953125 "/></g></g></g><g fill="#f79130" fill-opacity="1"><g transform="translate(167.395535, 91.264994)"><g><path d="M 6.75 -9.75 L 3.734375 -9.28125 L 5.078125 -0.8125 L 3.21875 -0.515625 L 1.875 -8.984375 L -1.140625 -8.5 L -1.390625 -10.03125 L 6.5 -11.28125 Z M 6.75 -9.75 "/></g></g></g><g fill="#f79130" fill-opacity="1"><g transform="translate(184.548946, 89.388358)"><g><path d="M 6.71875 -8.125 C 6.664062 -8.03125 6.609375 -7.957031 6.546875 -7.90625 C 6.484375 -7.863281 6.40625 -7.84375 6.3125 -7.84375 C 6.207031 -7.851562 6.097656 -7.894531 5.984375 -7.96875 C 5.867188 -8.039062 5.734375 -8.125 5.578125 -8.21875 C 5.421875 -8.3125 5.238281 -8.394531 5.03125 -8.46875 C 4.820312 -8.550781 4.570312 -8.597656 4.28125 -8.609375 C 4.019531 -8.609375 3.789062 -8.578125 3.59375 -8.515625 C 3.394531 -8.460938 3.226562 -8.378906 3.09375 -8.265625 C 2.957031 -8.160156 2.851562 -8.03125 2.78125 -7.875 C 2.707031 -7.71875 2.671875 -7.546875 2.671875 -7.359375 C 2.660156 -7.117188 2.71875 -6.914062 2.84375 -6.75 C 2.976562 -6.59375 3.15625 -6.457031 3.375 -6.34375 C 3.59375 -6.226562 3.835938 -6.117188 4.109375 -6.015625 C 4.390625 -5.921875 4.675781 -5.820312 4.96875 -5.71875 C 5.257812 -5.613281 5.539062 -5.488281 5.8125 -5.34375 C 6.09375 -5.207031 6.335938 -5.035156 6.546875 -4.828125 C 6.765625 -4.617188 6.9375 -4.363281 7.0625 -4.0625 C 7.195312 -3.769531 7.257812 -3.414062 7.25 -3 C 7.238281 -2.539062 7.148438 -2.109375 6.984375 -1.703125 C 6.816406 -1.304688 6.578125 -0.96875 6.265625 -0.6875 C 5.960938 -0.40625 5.59375 -0.179688 5.15625 -0.015625 C 4.71875 0.140625 4.21875 0.210938 3.65625 0.203125 C 3.332031 0.191406 3.015625 0.148438 2.703125 0.078125 C 2.390625 0.015625 2.09375 -0.078125 1.8125 -0.203125 C 1.53125 -0.328125 1.257812 -0.472656 1 -0.640625 C 0.75 -0.816406 0.535156 -1.003906 0.359375 -1.203125 L 0.921875 -2.109375 C 0.972656 -2.171875 1.035156 -2.222656 1.109375 -2.265625 C 1.191406 -2.304688 1.273438 -2.328125 1.359375 -2.328125 C 1.472656 -2.328125 1.59375 -2.273438 1.71875 -2.171875 C 1.851562 -2.066406 2.015625 -1.953125 2.203125 -1.828125 C 2.390625 -1.710938 2.601562 -1.601562 2.84375 -1.5 C 3.09375 -1.394531 3.390625 -1.335938 3.734375 -1.328125 C 4.273438 -1.316406 4.691406 -1.429688 4.984375 -1.671875 C 5.285156 -1.921875 5.445312 -2.285156 5.46875 -2.765625 C 5.46875 -3.023438 5.40625 -3.242188 5.28125 -3.421875 C 5.15625 -3.597656 4.984375 -3.742188 4.765625 -3.859375 C 4.554688 -3.984375 4.3125 -4.085938 4.03125 -4.171875 C 3.75 -4.253906 3.460938 -4.347656 3.171875 -4.453125 C 2.878906 -4.554688 2.597656 -4.675781 2.328125 -4.8125 C 2.054688 -4.945312 1.8125 -5.117188 1.59375 -5.328125 C 1.382812 -5.546875 1.21875 -5.816406 1.09375 -6.140625 C 0.96875 -6.460938 0.910156 -6.851562 0.921875 -7.3125 C 0.921875 -7.675781 1 -8.03125 1.15625 -8.375 C 1.3125 -8.726562 1.53125 -9.035156 1.8125 -9.296875 C 2.101562 -9.566406 2.457031 -9.773438 2.875 -9.921875 C 3.289062 -10.078125 3.765625 -10.148438 4.296875 -10.140625 C 4.890625 -10.117188 5.4375 -10.007812 5.9375 -9.8125 C 6.4375 -9.613281 6.863281 -9.34375 7.21875 -9 Z M 6.71875 -8.125 "/></g></g></g><g fill="#f79130" fill-opacity="1"><g transform="translate(201.158457, 90.670919)"><g/></g></g><g fill="#f79130" fill-opacity="1"><g transform="translate(213.203964, 93.365258)"><g><path d="M 4.765625 -3.296875 C 4.328125 -3.203125 3.976562 -3.039062 3.71875 -2.8125 C 3.457031 -2.582031 3.265625 -2.300781 3.140625 -1.96875 C 3.054688 -1.726562 3.019531 -1.492188 3.03125 -1.265625 C 3.039062 -1.035156 3.09375 -0.828125 3.1875 -0.640625 C 3.28125 -0.460938 3.410156 -0.300781 3.578125 -0.15625 C 3.742188 -0.0195312 3.9375 0.0859375 4.15625 0.171875 C 4.53125 0.304688 4.898438 0.367188 5.265625 0.359375 C 5.628906 0.359375 5.984375 0.300781 6.328125 0.1875 Z M 9.484375 3.46875 L 7.875 2.890625 C 7.707031 2.828125 7.582031 2.753906 7.5 2.671875 C 7.414062 2.597656 7.332031 2.472656 7.25 2.296875 L 6.859375 1.390625 C 6.316406 1.585938 5.75 1.6875 5.15625 1.6875 C 4.570312 1.6875 3.984375 1.578125 3.390625 1.359375 C 3.023438 1.222656 2.6875 1.03125 2.375 0.78125 C 2.0625 0.53125 1.8125 0.234375 1.625 -0.109375 C 1.4375 -0.453125 1.316406 -0.820312 1.265625 -1.21875 C 1.222656 -1.613281 1.28125 -2.019531 1.4375 -2.4375 C 1.550781 -2.738281 1.703125 -3.003906 1.890625 -3.234375 C 2.078125 -3.460938 2.300781 -3.660156 2.5625 -3.828125 C 2.820312 -3.992188 3.101562 -4.125 3.40625 -4.21875 C 3.707031 -4.3125 4.019531 -4.375 4.34375 -4.40625 C 4.226562 -4.820312 4.175781 -5.203125 4.1875 -5.546875 C 4.207031 -5.898438 4.273438 -6.234375 4.390625 -6.546875 C 4.503906 -6.867188 4.671875 -7.15625 4.890625 -7.40625 C 5.117188 -7.664062 5.382812 -7.863281 5.6875 -8 C 6 -8.144531 6.34375 -8.21875 6.71875 -8.21875 C 7.101562 -8.21875 7.507812 -8.140625 7.9375 -7.984375 C 8.3125 -7.847656 8.628906 -7.664062 8.890625 -7.4375 C 9.160156 -7.207031 9.367188 -6.953125 9.515625 -6.671875 C 9.660156 -6.390625 9.75 -6.097656 9.78125 -5.796875 C 9.8125 -5.492188 9.789062 -5.210938 9.71875 -4.953125 L 8.609375 -5.109375 C 8.398438 -5.140625 8.285156 -5.273438 8.265625 -5.515625 C 8.273438 -5.640625 8.265625 -5.765625 8.234375 -5.890625 C 8.210938 -6.023438 8.171875 -6.144531 8.109375 -6.25 C 8.046875 -6.351562 7.960938 -6.445312 7.859375 -6.53125 C 7.765625 -6.625 7.640625 -6.695312 7.484375 -6.75 C 7.296875 -6.820312 7.117188 -6.851562 6.953125 -6.84375 C 6.796875 -6.832031 6.644531 -6.789062 6.5 -6.71875 C 6.363281 -6.644531 6.238281 -6.546875 6.125 -6.421875 C 6.019531 -6.304688 5.941406 -6.171875 5.890625 -6.015625 C 5.835938 -5.878906 5.800781 -5.742188 5.78125 -5.609375 C 5.757812 -5.472656 5.757812 -5.332031 5.78125 -5.1875 C 5.800781 -5.039062 5.835938 -4.890625 5.890625 -4.734375 C 5.941406 -4.578125 6.007812 -4.390625 6.09375 -4.171875 L 7.671875 -0.625 C 7.910156 -0.851562 8.128906 -1.101562 8.328125 -1.375 C 8.523438 -1.644531 8.695312 -1.9375 8.84375 -2.25 C 8.894531 -2.34375 8.957031 -2.410156 9.03125 -2.453125 C 9.113281 -2.492188 9.203125 -2.492188 9.296875 -2.453125 L 10.3125 -2.09375 C 10.101562 -1.507812 9.820312 -0.984375 9.46875 -0.515625 C 9.113281 -0.0546875 8.703125 0.335938 8.234375 0.671875 Z M 9.484375 3.46875 "/></g></g></g><g fill="#f79130" fill-opacity="1"><g transform="translate(230.695914, 100.877428)"><g/></g></g><g fill="#f79130" fill-opacity="1"><g transform="translate(120.171269, 274.868931)"><g><path d="M 10.203125 -2.59375 C 10.109375 -2.550781 10.019531 -2.53125 9.9375 -2.53125 C 9.863281 -2.53125 9.789062 -2.554688 9.71875 -2.609375 C 9.632812 -2.679688 9.566406 -2.78125 9.515625 -2.90625 C 9.472656 -3.03125 9.414062 -3.171875 9.34375 -3.328125 C 9.28125 -3.492188 9.1875 -3.671875 9.0625 -3.859375 C 8.9375 -4.046875 8.757812 -4.226562 8.53125 -4.40625 C 8.320312 -4.570312 8.125 -4.6875 7.9375 -4.75 C 7.75 -4.820312 7.5625 -4.851562 7.375 -4.84375 C 7.195312 -4.832031 7.035156 -4.785156 6.890625 -4.703125 C 6.742188 -4.628906 6.613281 -4.515625 6.5 -4.359375 C 6.351562 -4.171875 6.285156 -3.972656 6.296875 -3.765625 C 6.316406 -3.554688 6.378906 -3.34375 6.484375 -3.125 C 6.585938 -2.90625 6.722656 -2.671875 6.890625 -2.421875 C 7.054688 -2.179688 7.222656 -1.929688 7.390625 -1.671875 C 7.554688 -1.410156 7.710938 -1.144531 7.859375 -0.875 C 8.003906 -0.601562 8.097656 -0.320312 8.140625 -0.03125 C 8.191406 0.257812 8.179688 0.5625 8.109375 0.875 C 8.035156 1.195312 7.875 1.523438 7.625 1.859375 C 7.34375 2.222656 7.015625 2.515625 6.640625 2.734375 C 6.273438 2.960938 5.882812 3.097656 5.46875 3.140625 C 5.050781 3.179688 4.617188 3.140625 4.171875 3.015625 C 3.722656 2.898438 3.273438 2.671875 2.828125 2.328125 C 2.578125 2.128906 2.34375 1.90625 2.125 1.65625 C 1.914062 1.414062 1.734375 1.164062 1.578125 0.90625 C 1.421875 0.644531 1.289062 0.367188 1.1875 0.078125 C 1.09375 -0.210938 1.035156 -0.492188 1.015625 -0.765625 L 1.984375 -1.15625 C 2.066406 -1.164062 2.148438 -1.164062 2.234375 -1.15625 C 2.316406 -1.15625 2.394531 -1.128906 2.46875 -1.078125 C 2.550781 -1.015625 2.617188 -0.898438 2.671875 -0.734375 C 2.722656 -0.578125 2.785156 -0.394531 2.859375 -0.1875 C 2.941406 0.0195312 3.050781 0.238281 3.1875 0.46875 C 3.332031 0.695312 3.539062 0.921875 3.8125 1.140625 C 4.238281 1.460938 4.640625 1.613281 5.015625 1.59375 C 5.398438 1.570312 5.738281 1.375 6.03125 1 C 6.195312 0.789062 6.28125 0.578125 6.28125 0.359375 C 6.289062 0.140625 6.238281 -0.078125 6.125 -0.296875 C 6.019531 -0.523438 5.878906 -0.753906 5.703125 -0.984375 C 5.523438 -1.222656 5.347656 -1.46875 5.171875 -1.71875 C 5.003906 -1.96875 4.851562 -2.226562 4.71875 -2.5 C 4.582031 -2.78125 4.488281 -3.066406 4.4375 -3.359375 C 4.394531 -3.648438 4.414062 -3.960938 4.5 -4.296875 C 4.582031 -4.640625 4.765625 -4.992188 5.046875 -5.359375 C 5.273438 -5.640625 5.550781 -5.875 5.875 -6.0625 C 6.207031 -6.257812 6.566406 -6.378906 6.953125 -6.421875 C 7.347656 -6.460938 7.757812 -6.421875 8.1875 -6.296875 C 8.613281 -6.179688 9.035156 -5.960938 9.453125 -5.640625 C 9.921875 -5.273438 10.296875 -4.863281 10.578125 -4.40625 C 10.867188 -3.945312 11.050781 -3.476562 11.125 -3 Z M 10.203125 -2.59375 "/></g></g></g><g fill="#f79130" fill-opacity="1"><g transform="translate(135.319351, 285.370319)"><g><path d="M 7.5 -0.515625 L 7.921875 -4.0625 C 7.929688 -4.207031 7.953125 -4.390625 7.984375 -4.609375 C 8.015625 -4.828125 8.0625 -5.054688 8.125 -5.296875 C 7.945312 -5.117188 7.785156 -4.945312 7.640625 -4.78125 C 7.492188 -4.625 7.359375 -4.492188 7.234375 -4.390625 L 4.625 -1.953125 Z M 8.75 4.40625 L 7.453125 3.75 C 7.304688 3.675781 7.207031 3.582031 7.15625 3.46875 C 7.101562 3.351562 7.078125 3.226562 7.078125 3.09375 L 7.328125 0.90625 L 3.59375 -0.96875 L 1.984375 0.53125 C 1.910156 0.601562 1.800781 0.65625 1.65625 0.6875 C 1.519531 0.71875 1.378906 0.695312 1.234375 0.625 L -0.0625 -0.03125 L 8.046875 -7.28125 L 9.765625 -6.421875 Z M 8.75 4.40625 "/></g></g></g><g fill="#f79130" fill-opacity="1"><g transform="translate(154.081308, 293.597353)"><g><path d="M 10.21875 -6.03125 L 7.28125 -6.859375 L 4.953125 1.390625 L 3.140625 0.890625 L 5.46875 -7.359375 L 2.53125 -8.1875 L 2.9375 -9.6875 L 10.625 -7.53125 Z M 10.21875 -6.03125 "/></g></g></g><g fill="#f79130" fill-opacity="1"><g transform="translate(172.814511, 297.887733)"><g><path d="M 11.125 -4.265625 C 11.0625 -3.523438 10.882812 -2.847656 10.59375 -2.234375 C 10.3125 -1.617188 9.929688 -1.097656 9.453125 -0.671875 C 8.972656 -0.242188 8.40625 0.0703125 7.75 0.28125 C 7.101562 0.5 6.394531 0.578125 5.625 0.515625 C 4.863281 0.460938 4.179688 0.285156 3.578125 -0.015625 C 2.972656 -0.328125 2.460938 -0.726562 2.046875 -1.21875 C 1.628906 -1.707031 1.316406 -2.273438 1.109375 -2.921875 C 0.910156 -3.578125 0.84375 -4.273438 0.90625 -5.015625 C 0.957031 -5.753906 1.128906 -6.429688 1.421875 -7.046875 C 1.710938 -7.660156 2.097656 -8.175781 2.578125 -8.59375 C 3.066406 -9.019531 3.632812 -9.335938 4.28125 -9.546875 C 4.925781 -9.765625 5.628906 -9.847656 6.390625 -9.796875 C 6.898438 -9.753906 7.375 -9.65625 7.8125 -9.5 C 8.257812 -9.351562 8.660156 -9.15625 9.015625 -8.90625 C 9.378906 -8.65625 9.703125 -8.367188 9.984375 -8.046875 C 10.265625 -7.722656 10.492188 -7.359375 10.671875 -6.953125 C 10.847656 -6.554688 10.972656 -6.128906 11.046875 -5.671875 C 11.128906 -5.222656 11.15625 -4.753906 11.125 -4.265625 Z M 9.203125 -4.40625 C 9.242188 -4.957031 9.207031 -5.457031 9.09375 -5.90625 C 8.976562 -6.363281 8.789062 -6.753906 8.53125 -7.078125 C 8.28125 -7.410156 7.960938 -7.671875 7.578125 -7.859375 C 7.191406 -8.046875 6.753906 -8.160156 6.265625 -8.203125 C 5.765625 -8.234375 5.3125 -8.179688 4.90625 -8.046875 C 4.507812 -7.921875 4.160156 -7.710938 3.859375 -7.421875 C 3.566406 -7.128906 3.332031 -6.769531 3.15625 -6.34375 C 2.976562 -5.914062 2.867188 -5.425781 2.828125 -4.875 C 2.785156 -4.320312 2.820312 -3.816406 2.9375 -3.359375 C 3.050781 -2.910156 3.234375 -2.523438 3.484375 -2.203125 C 3.734375 -1.878906 4.046875 -1.617188 4.421875 -1.421875 C 4.804688 -1.234375 5.25 -1.125 5.75 -1.09375 C 6.238281 -1.050781 6.6875 -1.097656 7.09375 -1.234375 C 7.5 -1.367188 7.851562 -1.578125 8.15625 -1.859375 C 8.457031 -2.148438 8.695312 -2.507812 8.875 -2.9375 C 9.050781 -3.363281 9.160156 -3.851562 9.203125 -4.40625 Z M 9.203125 -4.40625 "/></g></g></g><g fill="#f79130" fill-opacity="1"><g transform="translate(194.901369, 298.25868)"><g><path d="M 5.4375 -9.03125 C 5.394531 -8.925781 5.347656 -8.847656 5.296875 -8.796875 C 5.242188 -8.742188 5.171875 -8.707031 5.078125 -8.6875 C 4.972656 -8.675781 4.859375 -8.695312 4.734375 -8.75 C 4.609375 -8.8125 4.460938 -8.878906 4.296875 -8.953125 C 4.128906 -9.023438 3.9375 -9.082031 3.71875 -9.125 C 3.5 -9.175781 3.242188 -9.179688 2.953125 -9.140625 C 2.691406 -9.109375 2.46875 -9.050781 2.28125 -8.96875 C 2.09375 -8.882812 1.941406 -8.773438 1.828125 -8.640625 C 1.710938 -8.503906 1.628906 -8.351562 1.578125 -8.1875 C 1.535156 -8.03125 1.523438 -7.859375 1.546875 -7.671875 C 1.578125 -7.441406 1.671875 -7.253906 1.828125 -7.109375 C 1.984375 -6.972656 2.171875 -6.863281 2.390625 -6.78125 C 2.617188 -6.695312 2.878906 -6.625 3.171875 -6.5625 C 3.472656 -6.507812 3.769531 -6.453125 4.0625 -6.390625 C 4.363281 -6.328125 4.660156 -6.242188 4.953125 -6.140625 C 5.253906 -6.046875 5.523438 -5.914062 5.765625 -5.75 C 6.015625 -5.582031 6.222656 -5.359375 6.390625 -5.078125 C 6.554688 -4.796875 6.664062 -4.445312 6.71875 -4.03125 C 6.769531 -3.582031 6.742188 -3.144531 6.640625 -2.71875 C 6.546875 -2.300781 6.363281 -1.929688 6.09375 -1.609375 C 5.832031 -1.285156 5.5 -1.007812 5.09375 -0.78125 C 4.6875 -0.5625 4.203125 -0.414062 3.640625 -0.34375 C 3.316406 -0.300781 2.992188 -0.289062 2.671875 -0.3125 C 2.359375 -0.34375 2.050781 -0.394531 1.75 -0.46875 C 1.457031 -0.550781 1.175781 -0.660156 0.90625 -0.796875 C 0.632812 -0.929688 0.390625 -1.082031 0.171875 -1.25 L 0.609375 -2.21875 C 0.640625 -2.28125 0.6875 -2.335938 0.75 -2.390625 C 0.820312 -2.453125 0.898438 -2.488281 0.984375 -2.5 C 1.097656 -2.519531 1.226562 -2.488281 1.375 -2.40625 C 1.53125 -2.320312 1.707031 -2.234375 1.90625 -2.140625 C 2.101562 -2.046875 2.332031 -1.960938 2.59375 -1.890625 C 2.851562 -1.828125 3.15625 -1.816406 3.5 -1.859375 C 4.039062 -1.929688 4.4375 -2.113281 4.6875 -2.40625 C 4.945312 -2.695312 5.046875 -3.082031 4.984375 -3.5625 C 4.953125 -3.8125 4.863281 -4.015625 4.71875 -4.171875 C 4.570312 -4.328125 4.378906 -4.445312 4.140625 -4.53125 C 3.910156 -4.613281 3.648438 -4.675781 3.359375 -4.71875 C 3.066406 -4.769531 2.769531 -4.820312 2.46875 -4.875 C 2.175781 -4.9375 1.882812 -5.007812 1.59375 -5.09375 C 1.300781 -5.1875 1.03125 -5.320312 0.78125 -5.5 C 0.539062 -5.6875 0.332031 -5.929688 0.15625 -6.234375 C -0.0078125 -6.535156 -0.117188 -6.910156 -0.171875 -7.359375 C -0.210938 -7.722656 -0.1875 -8.085938 -0.09375 -8.453125 C 0 -8.828125 0.171875 -9.164062 0.421875 -9.46875 C 0.671875 -9.769531 0.988281 -10.023438 1.375 -10.234375 C 1.757812 -10.453125 2.21875 -10.59375 2.75 -10.65625 C 3.34375 -10.726562 3.898438 -10.703125 4.421875 -10.578125 C 4.941406 -10.453125 5.398438 -10.242188 5.796875 -9.953125 Z M 5.4375 -9.03125 "/></g></g></g><g fill="#f79130" fill-opacity="1"><g transform="translate(213.090196, 295.080257)"><g><path d="M 6 -12.640625 L 9.171875 -3.03125 L 7.375 -2.4375 L 5.984375 -6.640625 L 1.46875 -5.15625 L 2.859375 -0.953125 L 1.0625 -0.359375 L -2.109375 -9.96875 L -0.3125 -10.5625 L 1.046875 -6.421875 L 5.5625 -7.90625 L 4.203125 -12.046875 Z M 6 -12.640625 "/></g></g></g><g fill="#f79130" fill-opacity="1"><g transform="translate(233.042603, 287.193498)"><g><path d="M 2.65625 -1.4375 L 0.984375 -0.53125 L -3.828125 -9.4375 L -2.15625 -10.34375 Z M 2.65625 -1.4375 "/></g></g></g><g fill="#f79130" fill-opacity="1"><g transform="translate(245.67621, 279.55268)"><g><path d="M 0.109375 -10.53125 C 0.117188 -10.425781 0.113281 -10.335938 0.09375 -10.265625 C 0.0820312 -10.191406 0.0390625 -10.128906 -0.03125 -10.078125 C -0.113281 -10.003906 -0.222656 -9.960938 -0.359375 -9.953125 C -0.503906 -9.941406 -0.660156 -9.921875 -0.828125 -9.890625 C -1.003906 -9.867188 -1.203125 -9.820312 -1.421875 -9.75 C -1.640625 -9.675781 -1.863281 -9.550781 -2.09375 -9.375 C -2.300781 -9.207031 -2.460938 -9.039062 -2.578125 -8.875 C -2.691406 -8.71875 -2.765625 -8.550781 -2.796875 -8.375 C -2.835938 -8.195312 -2.835938 -8.023438 -2.796875 -7.859375 C -2.753906 -7.703125 -2.675781 -7.546875 -2.5625 -7.390625 C -2.414062 -7.203125 -2.238281 -7.085938 -2.03125 -7.046875 C -1.832031 -7.003906 -1.613281 -7.007812 -1.375 -7.0625 C -1.132812 -7.113281 -0.875 -7.179688 -0.59375 -7.265625 C -0.3125 -7.359375 -0.0234375 -7.457031 0.265625 -7.5625 C 0.554688 -7.664062 0.851562 -7.753906 1.15625 -7.828125 C 1.457031 -7.898438 1.753906 -7.921875 2.046875 -7.890625 C 2.347656 -7.859375 2.644531 -7.765625 2.9375 -7.609375 C 3.226562 -7.460938 3.5 -7.222656 3.75 -6.890625 C 4.03125 -6.523438 4.226562 -6.132812 4.34375 -5.71875 C 4.46875 -5.3125 4.5 -4.898438 4.4375 -4.484375 C 4.375 -4.066406 4.222656 -3.65625 3.984375 -3.25 C 3.742188 -2.851562 3.398438 -2.484375 2.953125 -2.140625 C 2.703125 -1.941406 2.429688 -1.769531 2.140625 -1.625 C 1.859375 -1.488281 1.570312 -1.378906 1.28125 -1.296875 C 0.988281 -1.210938 0.6875 -1.160156 0.375 -1.140625 C 0.0703125 -1.117188 -0.210938 -1.128906 -0.484375 -1.171875 L -0.609375 -2.21875 C -0.609375 -2.289062 -0.59375 -2.367188 -0.5625 -2.453125 C -0.53125 -2.546875 -0.476562 -2.617188 -0.40625 -2.671875 C -0.320312 -2.734375 -0.195312 -2.765625 -0.03125 -2.765625 C 0.132812 -2.773438 0.328125 -2.789062 0.546875 -2.8125 C 0.773438 -2.832031 1.015625 -2.878906 1.265625 -2.953125 C 1.523438 -3.023438 1.789062 -3.171875 2.0625 -3.390625 C 2.488281 -3.710938 2.738281 -4.066406 2.8125 -4.453125 C 2.894531 -4.835938 2.789062 -5.21875 2.5 -5.59375 C 2.332031 -5.800781 2.144531 -5.929688 1.9375 -5.984375 C 1.738281 -6.035156 1.515625 -6.039062 1.265625 -6 C 1.023438 -5.96875 0.769531 -5.894531 0.5 -5.78125 C 0.226562 -5.675781 -0.046875 -5.570312 -0.328125 -5.46875 C -0.617188 -5.363281 -0.914062 -5.273438 -1.21875 -5.203125 C -1.519531 -5.140625 -1.816406 -5.125 -2.109375 -5.15625 C -2.410156 -5.1875 -2.710938 -5.285156 -3.015625 -5.453125 C -3.316406 -5.628906 -3.609375 -5.898438 -3.890625 -6.265625 C -4.117188 -6.546875 -4.28125 -6.867188 -4.375 -7.234375 C -4.476562 -7.609375 -4.5 -7.988281 -4.4375 -8.375 C -4.382812 -8.757812 -4.242188 -9.140625 -4.015625 -9.515625 C -3.785156 -9.898438 -3.460938 -10.253906 -3.046875 -10.578125 C -2.578125 -10.941406 -2.082031 -11.203125 -1.5625 -11.359375 C -1.050781 -11.515625 -0.550781 -11.570312 -0.0625 -11.53125 Z M 0.109375 -10.53125 "/></g></g></g><g clip-path="url(#9dab9d9efd)"><path fill="#f79130" d="M 203.761719 216.152344 C 196.902344 219.207031 189.734375 219.207031 182.457031 219.304688 C 180.441406 219.304688 178.4375 219.207031 176.222656 219.207031 L 176.546875 191.882812 C 185.933594 191.882812 195.214844 191.148438 203.976562 195.058594 C 208.507812 197.046875 211.148438 200.535156 211.148438 205.699219 C 211.050781 210.867188 208.304688 214.136719 203.761719 216.152344 Z M 176.855469 154.546875 C 184.566406 154.546875 192.058594 153.914062 199.011719 157.078125 C 203.652344 159.089844 205.980469 162.878906 205.667969 167.417969 C 205.34375 172.273438 202.609375 175.75 197.648438 177.332031 C 190.898438 179.546875 183.824219 179.441406 176.546875 179.128906 C 176.652344 171.109375 176.75 163.09375 176.855469 154.546875 Z M 235.414062 199.695312 C 234.574219 193.679688 231.613281 189.039062 226.351562 185.984375 C 223.917969 184.605469 221.277344 183.660156 218.53125 182.496094 C 218.855469 182.292969 219.058594 182.078125 219.277344 181.96875 C 232.464844 175.222656 231.300781 154.871094 221.699219 147.90625 C 217.789062 145.054688 213.472656 143.269531 208.941406 142.214844 C 205.667969 141.472656 202.394531 140.945312 199.011719 140.417969 C 199.011719 134.507812 199.121094 126.394531 199.121094 119.851562 L 186.773438 119.851562 C 186.675781 126.285156 186.675781 134.195312 186.566406 139.996094 L 176.652344 139.996094 C 176.652344 134.195312 176.75 126.285156 176.75 119.851562 L 164.519531 119.851562 C 164.410156 126.394531 164.410156 134.507812 164.304688 140.308594 C 155.863281 140.203125 147.734375 140.203125 139.292969 140.105469 C 139.292969 144.636719 139.199219 148.855469 139.199219 153.289062 C 140.984375 153.289062 142.566406 153.289062 144.042969 153.386719 C 145.625 153.386719 147.207031 153.386719 148.691406 153.492188 C 153.007812 153.816406 155.226562 156.238281 155.226562 160.457031 C 155.023438 178.074219 154.808594 195.789062 154.699219 213.394531 C 154.699219 217.300781 153.007812 218.777344 149.21875 218.777344 L 140.984375 218.777344 C 140.144531 223.738281 139.292969 228.484375 138.453125 233.433594 C 146.785156 233.542969 155.023438 233.648438 163.464844 233.757812 C 163.464844 240.085938 163.355469 248.101562 163.355469 254.742188 L 175.695312 254.742188 C 175.800781 248.101562 175.800781 240.300781 175.910156 234.082031 C 179.386719 234.175781 182.550781 234.285156 185.824219 234.390625 C 185.824219 240.71875 185.71875 248.414062 185.71875 254.851562 L 198.066406 254.851562 C 198.175781 248.199219 198.175781 240.410156 198.269531 234.285156 C 198.703125 234.175781 199.011719 234.175781 199.335938 234.082031 C 205.25 233.121094 211.253906 232.59375 216.949219 231.226562 C 224.445312 229.324219 230.355469 224.996094 233.519531 217.613281 C 235.738281 211.933594 236.253906 205.914062 235.414062 199.695312 " fill-opacity="1" fill-rule="nonzero"/></g></svg>